<svg xmlns="http://www.w3.org/2000/svg" viewBox="0 0 384 384">
  <defs>
    <style>
      .cls-1 {
        fill: #2c6fcd;
      }
    </style>
  </defs>
  <g id="Layer_2" data-name="Layer 2">
    <g id="Layer_1-2" data-name="Layer 1">
      <path class="cls-1" d="M219,0c2.3792.7044,4.8051,1.2819,7.13,2.1344a33.2057,33.2057,0,0,1,22.0872,30.9364q.2955,68.4.2566,136.8019c-.04,20.3618-14.4327,34.3177-35.0541,34.3441-30.8578.04-61.7158-.1811-92.5734-.12a12.226,12.226,0,0,0-6.7427,2.2186c-12.6045,9.2079-25.07,18.6078-37.5128,28.0345-4.0789,3.09-8.31,4.625-13.1934,2.2142-4.9946-2.4655-6.5584-6.7619-6.4343-12.0865C57.1173,217.8622,57,211.24,57,204c-1.661,0-3.216.0208-4.77-.0035-7.7376-.121-15.5713.4727-23.1919-.5375C14.2461,201.4983,4.013,191.4025.6909,176.8539.5272,176.1374.2333,175.4506,0,174.75V29.25c.2922-1.0684.5968-2.1335.8745-3.2057C3.31,16.6426,8.54,9.2147,17.083,4.5664,20.8513,2.516,25.1772,1.4907,29.25,0ZM113.2515,108.5643c0,1.1246-.0186,2.25.003,3.3737.1263,6.5748,4.5563,11.4616,10.6729,11.7853,5.9465.3148,10.6362-3.8915,11.8826-10.2488a5.4878,5.4878,0,0,1,2.7054-3.2122c12.0125-6.1466,18.9973-15.8228,19.5968-29.3058.6-13.4874-5.2847-24.056-17.0421-30.7431-12.2111-6.9451-24.4681-5.6628-36.2545,1.4294-5.61,3.3758-7.3224,9.8982-4.292,15.2487,3.1,5.4743,9.6519,7.2006,15.6064,4.1524a30.2778,30.2778,0,0,1,4.752-2.1491,11.1036,11.1036,0,0,1,14.4235,7.6723c1.724,5.991-1.882,12.052-8.2333,13.8388C116.3969,93.4092,113.2516,97.5412,113.2515,108.5643ZM123.7,158.2325a11.2386,11.2386,0,1,0-11.1869-11.1939A11.3664,11.3664,0,0,0,123.7,158.2325Z"/>
      <path class="cls-1" d="M290.25,384c-14.4566-7.29-28.8979-14.61-43.3971-21.814a10.1221,10.1221,0,0,0-4.348-.6589q-35.4318-.0575-70.8637-.0316c-21.6228-.0181-35.8809-14.3094-35.8884-35.9582q-.0164-47.2425-.0028-94.4849V226.763h49.9748l1.0957,1.1c-.8926.369-2.022.5087-2.6384,1.1451-3.3331,3.4416-4.4165,7.52-2.5923,12.0468,1.8019,4.4711,5.29,6.8047,10.0826,7.166.9946.0751,1.9988.0285,2.9986.0285q64.8646.0014,129.7293-.01a23.4879,23.4879,0,0,0,4.8464-.2755,11.2094,11.2094,0,0,0-2.6291-22.1915c-20.7466-.0549-41.4934-.022-62.24-.0225-11.9639,0-23.9279,0-36.6749,0,32.9809-11.08,45.807-34.353,43.1436-67.5h4.6669q35.807,0,71.6137,0c19.7752.0008,31.401,9.03,36.3865,28.2424A5.6239,5.6239,0,0,0,384,187.5V332.25a8.8284,8.8284,0,0,0-.5757,1.3718c-4.2561,17.9677-16.7072,27.8449-35.1869,27.8754q-14.2467.0236-28.4932.0028h-15.26c-.1807,8.6478,2.2288,18.0781-8.234,22.5ZM259.8893,270.75c-22.2278,0-44.4556.0335-66.6833-.0246-5.2688-.0138-9.279,1.9838-11.4734,6.8082-3.4918,7.6766,2.2515,15.6833,11.2541,15.6986q40.6468.0692,81.2937.0175,25.8492,0,51.6983.01c5.0924.0084,9.0065-1.9787,11.1985-6.6487,3.5985-7.6663-2.0443-15.8244-10.9793-15.8444C304.0951,270.7172,281.9922,270.7506,259.8893,270.75Z"/>
    </g>
  </g>
</svg>
