<svg xmlns="http://www.w3.org/2000/svg" viewBox="0 0 75.32 84.09"><defs><style>.cls-1{fill:#2c6fcd;}</style></defs><g id="Layer_2" data-name="Layer 2"><g id="Layer_2-2" data-name="Layer 2"><path class="cls-1" d="M7.06,48.79h9.38a1.74,1.74,0,0,1,1.74,1.74V80.12a1.73,1.73,0,0,1-1.74,1.73H7.06a1.72,1.72,0,0,1-1.73-1.73V50.53A1.73,1.73,0,0,1,7.06,48.79Z"/><path class="cls-1" d="M69.31,39.09H51.92L52,39l.72-2.33.71-2.27,2.12-6.81,1-3.31a5.11,5.11,0,0,0,.13-.53h0a6,6,0,0,0,.15-1.34,5.74,5.74,0,0,0-.1-1.09A6.26,6.26,0,0,0,45,19.42L28.09,46a16.8,16.8,0,0,1-5.73,5.7h0a2.32,2.32,0,0,0-1.17,2V79.55a2.27,2.27,0,0,0,1.57,2.17l.16,0c.16,0,8.06,1.5,8.06,1.5l4.8.55a44.72,44.72,0,0,0,5,.28h21a6.8,6.8,0,0,0,6.66-5.41l6.84-33A6.56,6.56,0,0,0,69.31,39.09Z"/><path class="cls-1" d="M28.2,19.55A19.65,19.65,0,0,1,14.63,6a.4.4,0,0,0-.77,0A19.63,19.63,0,0,1,.29,19.55a.4.4,0,0,0-.27.5.4.4,0,0,0,.27.28A19.63,19.63,0,0,1,13.86,33.89a.4.4,0,0,0,.5.28.38.38,0,0,0,.27-.28A19.65,19.65,0,0,1,28.2,20.33a.4.4,0,0,0,.28-.5A.41.41,0,0,0,28.2,19.55Z"/><path class="cls-1" d="M55.86,10a13.34,13.34,0,0,1,9.25,9.25h0a.27.27,0,0,0,.34.18.27.27,0,0,0,.19-.18h0A13.38,13.38,0,0,1,74.89,10a.28.28,0,0,0,.19-.34.28.28,0,0,0-.19-.19A13.42,13.42,0,0,1,65.64.2.27.27,0,0,0,65.3,0a.3.3,0,0,0-.19.19,13.38,13.38,0,0,1-9.25,9.25.28.28,0,0,0-.19.34A.3.3,0,0,0,55.86,10Z"/></g></g></svg>