<svg xmlns="http://www.w3.org/2000/svg" viewBox="0 0 240.0097 240.0097">
  <defs>
    <style>
      .cls-1 {
        fill: #2c6fcd;
      }

      .cls-2 {
        fill: #fff;
      }
    </style>
  </defs>
  <g id="Layer_2" data-name="Layer 2">
    <g id="Layer_1-2" data-name="Layer 1">
      <g>
        <path class="cls-1" d="M240.01,112.7531v14.0357a15.995,15.995,0,0,0-.3977,2.0179c-1.0224,14.5326-4.3654,28.5361-10.8826,41.5447-21.3433,42.6024-55.9,65.8775-103.48,68.988a109.0612,109.0612,0,0,1-61.1881-13.8882c-39.28-21.98-60.6158-55.6778-63.4012-100.6306A111.0363,111.0363,0,0,1,14.522,63.6152Q42.3872,12.939,99.3676,1.89c4.57-.8783,9.2333-1.272,13.8533-1.89h14.0357a12.62,12.62,0,0,0,1.8063.3843A112.5022,112.5022,0,0,1,176.4646,14.08c33.7213,18.6388,54.3944,46.9272,61.65,84.85C238.9878,103.4912,239.39,108.143,240.01,112.7531ZM122.7784,54.2168C81.161,52.9975,51.7374,86.198,50.309,120.6276a69.6066,69.6066,0,0,0,135.2546,26.24c11.554-33.0774-4.1-64.2731-23.1969-77.6469l-7.3651,9.4845a57.7083,57.7083,0,0,1,10.9028,79.2277c-15.9358,21.9729-47.6587,29.7217-71.7743,17.1064C68.0159,161.378,56.174,131.71,66.14,104.3113c9.7493-26.8043,36.5059-39.3351,56.5-37.1012l-10.3836,10.913,7.96,7.5923,24.5516-25.78L119.0135,35.4143l-7.6034,7.95Zm-7.155,44.0383c-3.2383,1.2776-6.36,2.1278-9.1006,3.6593-9.61,5.37-9.8933,19.1136-.4232,24.3072,2.8494,1.5627,6.3021,2.0954,9.5328,2.875,4.2194,1.0182,8.5929,1.4949,12.714,2.7946,3.9531,1.2468,4.42,5.7259,1.0977,8.244a9.7017,9.7017,0,0,1-3.3275,1.6053c-8.2856,2.1651-16.1973-.4763-19.386-6.8364l-9.9408,4.222c3.4517,8.5522,10.232,12.2857,18.9063,13.6136v6.5812h11.0145c0-1.731.0892-3.2861-.0248-4.826-.1174-1.587.3907-2.1039,2.0365-2.6134a32.1327,32.1327,0,0,0,8.8324-3.971c7.7328-5.379,8.3146-19.9582-1.26-24.6585a41.4492,41.4492,0,0,0-9.0314-2.9576c-4.239-.9672-8.5765-1.4938-12.85-2.3241-2.0421-.3968-3.7184-1.4715-3.7633-3.82-.0444-2.3174,1.3825-3.7475,3.44-4.5083,5.1317-1.8976,13.5516-1.8114,18.3752,4.4411,1.5095-.6958,3.0536-1.4029,4.5936-2.1188,1.5171-.7054,3.03-1.42,4.5337-2.125-2.1993-4.8444-5.1543-8.417-9.7511-9.4605-4.4076-1.0005-5.8845-3.0566-5.2025-7.2174.0191-.1169-.1365-.2624-.2636-.4892h-10.752Z"/>
        <path class="cls-2" d="M113.2209,0c-4.62.6183-9.2833,1.012-13.8533,1.89Q42.478,12.8243,14.522,63.6152A111.0363,111.0363,0,0,0,.6605,124.8206c2.7854,44.9528,24.1214,78.65,63.4012,100.6306A109.0612,109.0612,0,0,0,125.25,239.3394c47.5795-3.1105,82.1363-26.3856,103.48-68.988,6.5172-13.0086,9.86-27.0121,10.8826-41.5447a15.995,15.995,0,0,1,.3977-2.0179V240.01H0Q0,120.0049,0,0Z"/>
        <path class="cls-2" d="M240.01,112.7531c-.62-4.61-1.0219-9.2619-1.8947-13.8237-7.256-37.9223-27.9291-66.2107-61.65-84.8495A112.5022,112.5022,0,0,0,129.0629.3843,12.62,12.62,0,0,1,127.2566,0H240.01Z"/>
        <path class="cls-2" d="M122.7784,54.2168,111.41,43.3642l7.6034-7.95,25.7548,24.5212-24.5516,25.78-7.96-7.5923L122.64,67.21c-19.9944-2.2339-46.751,10.2969-56.5,37.1012C56.174,131.71,68.0159,161.378,94.13,175.0389c24.1156,12.6153,55.8385,4.8665,71.7743-17.1064a57.7083,57.7083,0,0,0-10.9028-79.2277l7.3651-9.4845c19.097,13.3738,34.7509,44.57,23.1969,77.6469a69.6066,69.6066,0,0,1-135.2546-26.24C51.7374,86.198,81.161,52.9975,122.7784,54.2168Z"/>
        <path class="cls-2" d="M115.6234,98.2551V92.6717h10.752c.1271.2268.2827.3723.2636.4892-.682,4.1608.7949,6.2169,5.2025,7.2174,4.5968,1.0435,7.5518,4.6161,9.7511,9.4605-1.5037.7052-3.0166,1.42-4.5337,2.125-1.54.7159-3.0841,1.423-4.5936,2.1188-4.8236-6.2525-13.2435-6.3387-18.3752-4.4411-2.0574.7608-3.4843,2.1909-3.44,4.5083.0449,2.349,1.7212,3.4237,3.7633,3.82,4.273.83,8.6105,1.3569,12.85,2.3241a41.4492,41.4492,0,0,1,9.0314,2.9576c9.5749,4.7,8.9931,19.28,1.26,24.6585a32.1327,32.1327,0,0,1-8.8324,3.971c-1.6458.51-2.1539,1.0264-2.0365,2.6134.114,1.54.0248,3.095.0248,4.826H115.6961V152.74c-8.6743-1.3279-15.4546-5.0614-18.9063-13.6136l9.9408-4.222c3.1887,6.36,11.1,9.0015,19.386,6.8364a9.7017,9.7017,0,0,0,3.3275-1.6053c3.3225-2.5181,2.8554-6.9972-1.0977-8.244-4.1211-1.3-8.4946-1.7764-12.714-2.7946-3.2307-.78-6.6834-1.3123-9.5328-2.875-9.47-5.1936-9.1872-18.9369.4232-24.3072C109.2635,100.3829,112.3851,99.5327,115.6234,98.2551Z"/>
      </g>
    </g>
  </g>
</svg>
