<svg xmlns="http://www.w3.org/2000/svg" viewBox="0 0 76.72 49.49"><defs><style>.cls-1{fill:#2c6fcd;}.cls-2{fill:#fff;}.cls-3{fill:#0e8c44;}</style></defs><g id="Layer_2" data-name="Layer 2"><g id="Layer_2-2" data-name="Layer 2"><path class="cls-1" d="M70.69,6.54A6.54,6.54,0,0,0,64.14,0H6.54A6.54,6.54,0,0,0,0,6.54v5.74H70.69V6.54Z"/><path class="cls-1" d="M60.49,17a16.13,16.13,0,0,0-8.13,2.19H0V39.08a6.54,6.54,0,0,0,6.54,6.55H50A16.22,16.22,0,1,0,60.49,17ZM24.13,36.68a.85.85,0,0,1-.84.84H10.34a.85.85,0,0,1-.84-.84V34.13a.84.84,0,0,1,.84-.84h13a.84.84,0,0,1,.84.84v2.55Zm36.36,6.87A10.29,10.29,0,1,1,70.78,33.26,10.29,10.29,0,0,1,60.49,43.55Z"/><circle class="cls-2" cx="60.49" cy="33.26" r="13.19"/><path class="cls-3" d="M60.49,49.45A16.19,16.19,0,1,1,76.68,33.26,16.21,16.21,0,0,1,60.49,49.45Zm0-26.38A10.19,10.19,0,1,0,70.68,33.26,10.21,10.21,0,0,0,60.49,23.07Z"/><path class="cls-3" d="M65.45,27.4a.4.4,0,0,0-.57,0l-6.27,6.27-2.5-2.51a.43.43,0,0,0-.58,0l-2.3,2.3a.41.41,0,0,0,0,.58l5.09,5.09a.41.41,0,0,0,.58,0l8.85-8.86a.38.38,0,0,0,.12-.28.4.4,0,0,0-.12-.29Z"/></g></g></svg>