<svg xmlns="http://www.w3.org/2000/svg" viewBox="0 0 87.5 87.5"><defs><style>.cls-1{fill:#2c6fcd;}</style></defs><g id="Layer_2" data-name="Layer 2"><g id="Layer_2-2" data-name="Layer 2"><path class="cls-1" d="M46.5,41.19H41a5.68,5.68,0,0,1,0-11.35H52a2.57,2.57,0,0,0,0-5.13H46.31V19a2.56,2.56,0,1,0-5.12,0v5.67H41a10.8,10.8,0,0,0,0,21.6h5.5a5.68,5.68,0,0,1,0,11.35h-11a2.57,2.57,0,0,0,0,5.13h5.68v5.67a2.56,2.56,0,1,0,5.12,0V62.79h.19a10.8,10.8,0,0,0,0-21.6Z"/><path class="cls-1" d="M87.5,43.75A43.76,43.76,0,0,0,12.81,12.81a43.77,43.77,0,0,0,50,70.36H80.5a2.84,2.84,0,0,0,2.83-2.84V62.44A43.59,43.59,0,0,0,87.5,43.75Zm-82.37,0A38.62,38.62,0,1,1,43.75,82.37,38.66,38.66,0,0,1,5.13,43.75Z"/></g></g></svg>