<svg xmlns="http://www.w3.org/2000/svg" viewBox="0 0 86.07 79.86"><defs><style>.cls-1{fill:#2c6fcd;}.cls-2{fill:#fff;}.cls-3{fill:#d30909;}</style></defs><g id="Layer_2" data-name="Layer 2"><g id="Layer_2-2" data-name="Layer 2"><path class="cls-1" d="M77.71,0H7.82A7.82,7.82,0,0,0,0,7.82V56.33a7.82,7.82,0,0,0,7.82,7.82h6.8L5.51,79.86,31,64.15h46.7a7.82,7.82,0,0,0,7.82-7.82V7.82A7.82,7.82,0,0,0,77.71,0Z"/><path class="cls-2" d="M59.36,42V13.13l-1.1.09a42.31,42.31,0,0,0-12.83,3.13l-1.94.81V45.89l1.41-.59a43.77,43.77,0,0,1,13.27-3.22Z"/><path class="cls-2" d="M63,17.4H60.8V42.64a.72.72,0,0,1-.66.72l-1.85.16c-.53,0-1.06.09-1.59.16l-.52.07-1.07.15-.62.11-1,.18-.65.14c-.31.06-.61.12-.91.2l-.67.16-.87.23-.68.2-.86.26-.67.22c-.28.09-.57.19-.85.3s-.43.15-.65.24l-.3.11H63Z"/><path class="cls-2" d="M27.28,13.22l-1.1-.09V42l1.28.11a43.76,43.76,0,0,1,13.26,3.25l1.33.55V17.16l-1.94-.81A42.75,42.75,0,0,0,27.28,13.22Z"/><path class="cls-2" d="M22.57,17.4V46.25H39.11l-.26-.11-.63-.22-.88-.31c-.21-.08-.42-.15-.64-.21l-.88-.28-.65-.18-.89-.24-.65-.16-.91-.21-.65-.13L31.12,44l-.62-.11-1.05-.14-.53-.08c-.53-.06-1.06-.12-1.58-.16l-1.95-.17a.72.72,0,0,1-.66-.72V17.4Z"/><circle class="cls-2" cx="69.88" cy="58.66" r="13.19"/><path class="cls-3" d="M69.88,74.85A16.19,16.19,0,1,1,86.07,58.66,16.2,16.2,0,0,1,69.88,74.85Zm0-26.38A10.19,10.19,0,1,0,80.07,58.66,10.2,10.2,0,0,0,69.88,48.47Z"/><path class="cls-3" d="M75.74,61.65l-3-3,3-3a.42.42,0,0,0,.12-.28.45.45,0,0,0-.12-.29l-2.3-2.3a.41.41,0,0,0-.58,0l-3,3-.4-.4h0l-2.56-2.57a.45.45,0,0,0-.63,0L64,55.09a.41.41,0,0,0,0,.58l3,3-.41.41h0L64,61.63a.44.44,0,0,0,0,.62l2.28,2.28a.4.4,0,0,0,.29.12.38.38,0,0,0,.28-.12l3-3,3,3a.4.4,0,0,0,.29.12.38.38,0,0,0,.28-.12l2.3-2.3A.4.4,0,0,0,75.74,61.65Z"/></g></g></svg>