<svg xmlns="http://www.w3.org/2000/svg" viewBox="0 0 92.88 79.86"><defs><style>.cls-1{fill:#2c6fcd;}.cls-2{fill:#fff;}.cls-3{fill:#0e8c44;}</style></defs><g id="Layer_2" data-name="Layer 2"><g id="Layer_2-2" data-name="Layer 2"><path class="cls-1" d="M77.71,0H7.82A7.82,7.82,0,0,0,0,7.82V56.33a7.82,7.82,0,0,0,7.82,7.82h6.8L5.51,79.86,31,64.15h46.7a7.82,7.82,0,0,0,7.82-7.82V7.82A7.82,7.82,0,0,0,77.71,0Z"/><path class="cls-2" d="M59.36,42V13.13l-1.1.09a42.31,42.31,0,0,0-12.83,3.13l-1.94.81V45.89l1.41-.59a43.77,43.77,0,0,1,13.27-3.22Z"/><path class="cls-2" d="M63,17.4H60.8V42.64a.72.72,0,0,1-.66.72l-1.85.16c-.53,0-1.06.09-1.59.16l-.52.07-1.07.15-.62.11-1,.18-.65.14c-.31.06-.61.12-.91.2l-.67.16-.87.23-.68.2-.86.26-.67.22c-.28.09-.57.19-.85.3s-.43.15-.65.24l-.3.11H63Z"/><path class="cls-2" d="M27.28,13.22l-1.1-.09V42l1.28.11a43.76,43.76,0,0,1,13.26,3.25l1.33.55V17.16l-1.94-.81A42.75,42.75,0,0,0,27.28,13.22Z"/><path class="cls-2" d="M22.57,17.4V46.25H39.11l-.26-.11-.63-.22-.88-.31c-.21-.08-.42-.15-.64-.21l-.88-.28-.65-.18-.89-.24-.65-.16-.91-.21-.65-.13L31.12,44l-.62-.11-1.05-.14-.53-.08c-.53-.06-1.06-.12-1.58-.16l-1.95-.17a.72.72,0,0,1-.66-.72V17.4Z"/><circle class="cls-2" cx="76.69" cy="59.08" r="13.19"/><path class="cls-3" d="M76.69,75.27A16.19,16.19,0,1,1,92.88,59.08,16.2,16.2,0,0,1,76.69,75.27Zm0-26.38A10.19,10.19,0,1,0,86.88,59.08,10.2,10.2,0,0,0,76.69,48.89Z"/><path class="cls-3" d="M81.65,53.22a.4.4,0,0,0-.57,0l-6.27,6.26L72.31,57a.43.43,0,0,0-.58,0l-2.3,2.3a.42.42,0,0,0-.11.29.41.41,0,0,0,.11.28l5.09,5.09a.42.42,0,0,0,.29.12.4.4,0,0,0,.29-.12L84,56.09a.41.41,0,0,0,0-.58Z"/></g></g></svg>