<?xml version="1.0" encoding="utf-8"?>
<!-- Generator: Adobe Illustrator 26.0.1, SVG Export Plug-In . SVG Version: 6.00 Build 0)  -->
<svg version="1.1" id="Layer_1" xmlns="http://www.w3.org/2000/svg" xmlns:xlink="http://www.w3.org/1999/xlink" x="0px" y="0px"
	 viewBox="0 0 86.1 79.9" style="enable-background:new 0 0 86.1 79.9;" xml:space="preserve">
<style type="text/css">
	.st0{fill:#2C6FCD;}
	.st1{fill:#FFFFFF;}
	.st2{fill:#D30909;}
</style>
<g id="Layer_2_00000044136566540272806730000017343208180145483166_">
	<g id="Layer_2-2_00000045606863535806641390000013406051629203288221_">
		<path class="st0" d="M77.7,0H7.8C3.5,0,0,3.5,0,7.8c0,0,0,0,0,0v48.5c0,4.3,3.5,7.8,7.8,7.8h6.8L5.5,79.9L31,64.2h46.7
			c4.3,0,7.8-3.5,7.8-7.8V7.8C85.5,3.5,82,0,77.7,0z"/>
		<path class="st1" d="M59.4,42V13.1l-1.1,0.1c-4.4,0.4-8.7,1.4-12.8,3.1l-1.9,0.8v28.7l1.4-0.6c4.2-1.8,8.7-2.8,13.3-3.2L59.4,42z"
			/>
		<path class="st1" d="M63,17.4h-2.2v25.2c0,0.4-0.3,0.7-0.7,0.7l-1.8,0.2c-0.5,0-1.1,0.1-1.6,0.2l-0.5,0.1l-1.1,0.2L54.5,44l-1,0.2
			l-0.7,0.1c-0.3,0.1-0.6,0.1-0.9,0.2l-0.7,0.2l-0.9,0.2l-0.7,0.2l-0.9,0.3l-0.7,0.2c-0.3,0.1-0.6,0.2-0.8,0.3s-0.4,0.2-0.7,0.2
			l-0.3,0.1H63V17.4z"/>
		<path class="st1" d="M27.3,13.2l-1.1-0.1V42l1.3,0.1c4.6,0.4,9,1.5,13.3,3.2l1.3,0.5V17.2l-1.9-0.8C36,14.6,31.7,13.6,27.3,13.2z"
			/>
		<path class="st1" d="M22.6,17.4v28.9h16.5l-0.3-0.1l-0.6-0.2l-0.9-0.3c-0.2-0.1-0.4-0.2-0.6-0.2l-0.9-0.3l-0.7-0.2l-0.9-0.2
			l-0.7-0.2l-0.9-0.2l-0.7-0.1L31.1,44l-0.6-0.1l-1-0.1l-0.5-0.1c-0.5-0.1-1.1-0.1-1.6-0.2l-2-0.2c-0.4,0-0.7-0.3-0.7-0.7V17.4H22.6
			z"/>
		<path class="st2" d="M69.9,74.8c-8.9,0-16.2-7.2-16.2-16.2s7.2-16.2,16.2-16.2c8.9,0,16.2,7.2,16.2,16.2l0,0
			C86.1,67.6,78.8,74.8,69.9,74.8z M69.9,48.5c-5.6,0-10.2,4.6-10.2,10.2c0,5.6,4.6,10.2,10.2,10.2c5.6,0,10.2-4.6,10.2-10.2
			C80.1,53,75.5,48.5,69.9,48.5z"/>
		<circle class="st1" cx="69.9" cy="58.7" r="13.2"/>
	</g>
</g>
<path class="st2" d="M63.6,66c0,1.1,0.9,2.1,2.1,2.1H74c1.1,0,2.1-0.9,2.1-2.1V53.4H63.6V66z M77.2,50.3h-3.6l-1-1h-5.2l-1,1h-3.6
	v2.1h14.6V50.3z"/>
</svg>
