<svg xmlns="http://www.w3.org/2000/svg" viewBox="0 0 93.55 79.86"><defs><style>.cls-1{fill:#2c6fcd;}.cls-2{fill:#fff;}</style></defs><g id="Layer_2" data-name="Layer 2"><g id="Layer_2-2" data-name="Layer 2"><path class="cls-1" d="M77.71,0H7.82A7.82,7.82,0,0,0,0,7.82V56.33a7.82,7.82,0,0,0,7.82,7.82h6.8L5.51,79.86,31,64.15h46.7a7.82,7.82,0,0,0,7.82-7.82V7.82A7.82,7.82,0,0,0,77.71,0Z"/><path class="cls-2" d="M59.36,42V13.13l-1.1.09a42.31,42.31,0,0,0-12.83,3.13l-1.94.81V45.89l1.41-.59a43.77,43.77,0,0,1,13.27-3.22Z"/><path class="cls-2" d="M63,17.4H60.8V42.64a.72.72,0,0,1-.66.72l-1.85.16c-.53,0-1.06.09-1.59.16l-.52.07-1.07.15-.62.11-1,.18-.65.14c-.31.06-.61.12-.91.2l-.67.16-.87.23-.68.2-.86.26-.67.22c-.28.09-.57.19-.85.3s-.43.15-.65.24l-.3.11H63Z"/><path class="cls-2" d="M27.28,13.22l-1.1-.09V42l1.28.11a43.76,43.76,0,0,1,13.26,3.25l1.33.55V17.16l-1.94-.81A42.75,42.75,0,0,0,27.28,13.22Z"/><path class="cls-2" d="M22.57,17.4V46.25H39.11l-.26-.11-.63-.22-.88-.31c-.21-.08-.42-.15-.64-.21l-.88-.28-.65-.18-.89-.24-.65-.16-.91-.21-.65-.13L31.12,44l-.62-.11-1.05-.14-.53-.08c-.53-.06-1.06-.12-1.58-.16l-1.95-.17a.72.72,0,0,1-.66-.72V17.4Z"/><circle class="cls-2" cx="77.36" cy="58.51" r="13.19"/><path class="cls-1" d="M77.36,74.7A16.19,16.19,0,1,1,93.55,58.51,16.2,16.2,0,0,1,77.36,74.7Zm0-26.38A10.19,10.19,0,1,0,87.55,58.51,10.2,10.2,0,0,0,77.36,48.32Z"/><path class="cls-1" d="M85.21,65a1.69,1.69,0,0,0-.9-1.22c-1.57-.78-5-1.94-5-1.94H79l-.94,1.26.89,6.13h6.59A36.68,36.68,0,0,0,85.21,65Z"/><path class="cls-1" d="M75.42,61.81S72,63,70.39,63.75a1.71,1.71,0,0,0-.9,1.22,36.68,36.68,0,0,0-.32,4.23h6.6l.88-6.13-.94-1.26Z"/><path class="cls-1" d="M79.84,55.78H78a.55.55,0,0,0-.36.15,1,1,0,0,0-.11.17,1.14,1.14,0,0,0-.32,0,.45.45,0,0,0-.11-.17.53.53,0,0,0-.36-.15H74.86a.13.13,0,0,0-.12.12v.22a.11.11,0,0,0,.05.09l.12.1V57a.5.5,0,0,0,.5.49h1.18a.48.48,0,0,0,.48-.4l.13-.62a.61.61,0,0,1,.3,0l.13.63a.49.49,0,0,0,.48.4H79.3a.49.49,0,0,0,.49-.49v-.68l.12-.1a.11.11,0,0,0,0-.09V55.9A.13.13,0,0,0,79.84,55.78Zm-3,.52-.14.72a.14.14,0,0,1-.14.11H75.41a.15.15,0,0,1-.15-.14v-.71a.15.15,0,0,1,.15-.15h1.32a.15.15,0,0,1,.15.15v0Zm2.57.69a.14.14,0,0,1-.14.14H78.11A.14.14,0,0,1,78,57l-.14-.72a.14.14,0,0,1,.11-.17H79.3a.15.15,0,0,1,.14.15Z"/><path class="cls-1" d="M78,58.41H76.73a.22.22,0,0,0-.21.21.21.21,0,0,0,.21.21H78a.21.21,0,0,0,.21-.21A.22.22,0,0,0,78,58.41Z"/><path class="cls-1" d="M80.76,58.1l.48-2.47.06-.35a3.65,3.65,0,0,0-3.13-4.12l-.49,0H77a3.66,3.66,0,0,0-3.66,3.66,2.7,2.7,0,0,0,0,.49v0l.54,2.79a3.47,3.47,0,0,0,6.82,0Zm-3.41,2A2.71,2.71,0,0,1,74.7,58l-.5-2.59h.38a8,8,0,0,0,4.06-1,4.8,4.8,0,0,0,1.85,1L80,58A2.71,2.71,0,0,1,77.35,60.14Z"/></g></g></svg>