<svg xmlns="http://www.w3.org/2000/svg" viewBox="0 0 73.89 70.95"><defs><style>.cls-1{fill:#2c6fcd;}</style></defs><g id="Layer_2" data-name="Layer 2"><g id="Layer_2-2" data-name="Layer 2"><path class="cls-1" d="M37.63,17.74h-.21a2.54,2.54,0,0,0-2.56,2.55V37a3.52,3.52,0,0,0,1.74,3.05l14.72,8.83a2.54,2.54,0,1,0,2.59-4.36L40.18,36.4V20.29A2.54,2.54,0,0,0,37.63,17.74Z"/><path class="cls-1" d="M38.38,0H38v7.1h.43A28.38,28.38,0,1,1,10.06,36.62H3A35.47,35.47,0,1,0,38.38,0Z"/><polygon class="cls-1" points="0 36.64 12.98 36.64 6.49 28.33 0 36.64"/></g></g></svg>