<svg xmlns="http://www.w3.org/2000/svg" viewBox="0 0 85.79 73.95"><defs><style>.cls-1{fill:#2c6fcd;}.cls-2{fill:#fff;}.cls-3{fill:#0e8c44;}</style></defs><g id="Layer_2" data-name="Layer 2"><g id="Layer_2-2" data-name="Layer 2"><path class="cls-1" d="M37.63,17.74h-.21a2.54,2.54,0,0,0-2.56,2.55V37a3.52,3.52,0,0,0,1.74,3.05l14.72,8.83a2.54,2.54,0,1,0,2.59-4.36L40.18,36.4V20.29A2.54,2.54,0,0,0,37.63,17.74Z"/><path class="cls-1" d="M38.38,0H38v7.1h.43A28.38,28.38,0,1,1,10.06,36.62H3A35.47,35.47,0,1,0,38.38,0Z"/><polygon class="cls-1" points="0 36.64 12.98 36.64 6.49 28.33 0 36.64"/><circle class="cls-2" cx="69.6" cy="57.76" r="13.19"/><path class="cls-3" d="M69.6,74A16.19,16.19,0,1,1,85.79,57.76,16.2,16.2,0,0,1,69.6,74Zm0-26.38A10.19,10.19,0,1,0,79.79,57.76,10.2,10.2,0,0,0,69.6,47.57Z"/><path class="cls-3" d="M74.56,51.9a.41.41,0,0,0-.58,0l-6.26,6.27-2.5-2.51a.43.43,0,0,0-.58,0L62.34,58a.41.41,0,0,0,0,.58l5.09,5.09a.4.4,0,0,0,.29.12.42.42,0,0,0,.29-.12l8.85-8.86a.38.38,0,0,0,.12-.28.45.45,0,0,0-.12-.29Z"/></g></g></svg>