<svg xmlns="http://www.w3.org/2000/svg" viewBox="0 0 81.29 89.8"><defs><style>.cls-1{fill:#2c6fcd;}</style></defs><g id="Layer_2" data-name="Layer 2"><g id="Layer_2-2" data-name="Layer 2"><path class="cls-1" d="M79.72,68.81a8.37,8.37,0,0,0-4.49-6.05c-7.82-3.89-25-9.65-25-9.65H48.82l-4.69,6.26L48.52,89.8H81.29S81.06,76.63,79.72,68.81Z"/><path class="cls-1" d="M31,53.11s-17.15,5.76-25,9.65a8.35,8.35,0,0,0-4.49,6.05C.24,76.63,0,89.8,0,89.8H32.77l4.4-30.43-4.69-6.26Z"/><path class="cls-1" d="M53,23.15H43.77a2.5,2.5,0,0,0-1.77.71,2.4,2.4,0,0,0-.55.85,4.78,4.78,0,0,0-1.6,0,2.4,2.4,0,0,0-.56-.88,2.49,2.49,0,0,0-1.77-.71H28.28a.58.58,0,0,0-.59.58V24.8a.57.57,0,0,0,.23.47l.62.48v3.38A2.44,2.44,0,0,0,31,31.57h5.89a2.45,2.45,0,0,0,2.4-2l.61-3.1a3.17,3.17,0,0,1,1.53-.05L42,29.6a2.45,2.45,0,0,0,2.4,2h5.89a2.45,2.45,0,0,0,2.45-2.44V25.75l.62-.48a.59.59,0,0,0,.22-.47V23.73A.58.58,0,0,0,53,23.15ZM38.27,25.73l-.69,3.54a.73.73,0,0,1-.71.58H31a.72.72,0,0,1-.72-.72V25.59a.72.72,0,0,1,.72-.72h6.58a.72.72,0,0,1,.72.72.71.71,0,0,1,0,.14ZM51,29.13a.72.72,0,0,1-.72.72H44.42a.72.72,0,0,1-.7-.58L43,25.73a.73.73,0,0,1,.57-.85h6.72a.72.72,0,0,1,.72.72Z"/><path class="cls-1" d="M43.72,36.21H37.57a1,1,0,0,0,0,2.07h6.15a1,1,0,1,0,0-2.07Z"/><path class="cls-1" d="M57.58,34.68,60,22.37l.34-1.73A18.17,18.17,0,0,0,42.27,0H39A18.23,18.23,0,0,0,21,20.64l0,.16,2.7,13.88a17.25,17.25,0,0,0,33.86,0ZM40.65,44.8A13.46,13.46,0,0,1,27.48,33.94L25,21.1c.63,0,1.26,0,1.9,0,8.06,0,15.28-1.9,20.14-4.89a24.54,24.54,0,0,0,9.22,5.1L53.81,33.94A13.46,13.46,0,0,1,40.65,44.8Z"/></g></g></svg>