<svg xmlns="http://www.w3.org/2000/svg" viewBox="0 0 86.32 70.43"><defs><style>.cls-1{fill:#2c6fcd;}.cls-2{fill:#fff;}.cls-3{fill:#0e8c44;}</style></defs><g id="Layer_2" data-name="Layer 2"><g id="Layer_2-2" data-name="Layer 2"><circle class="cls-1" cx="40.74" cy="15.91" r="3.98"/><path class="cls-1" d="M40.74,24.67A8.76,8.76,0,0,0,32,32.62H49.45a8.75,8.75,0,0,0-8.71-7.95Z"/><path class="cls-1" d="M74.32,0H7.16A7.17,7.17,0,0,0,0,7.16V56a7.17,7.17,0,0,0,7.16,7.17H74.32A7.18,7.18,0,0,0,81.48,56V7.16A7.17,7.17,0,0,0,74.32,0ZM27.21,33.42a13.53,13.53,0,0,1,6.91-11.79,8.75,8.75,0,1,1,13.24,0,13.52,13.52,0,0,1,6.9,11.79V35a2.38,2.38,0,0,1-2.38,2.39H29.6A2.39,2.39,0,0,1,27.21,35ZM69.38,52.83H25.62v.8a2.39,2.39,0,0,1-4.77,0v-.8H12.09a2.39,2.39,0,0,1,0-4.77h8.76v-.8a2.39,2.39,0,0,1,4.77,0v.8H69.38a2.39,2.39,0,1,1,0,4.77Z"/><circle class="cls-2" cx="70.13" cy="54.24" r="13.19"/><path class="cls-3" d="M70.13,70.43A16.19,16.19,0,1,1,86.32,54.24,16.21,16.21,0,0,1,70.13,70.43Zm0-26.38A10.19,10.19,0,1,0,80.32,54.24,10.2,10.2,0,0,0,70.13,44.05Z"/><path class="cls-3" d="M75.09,48.38a.4.4,0,0,0-.57,0l-6.27,6.26-2.5-2.5a.43.43,0,0,0-.58,0l-2.3,2.3a.44.44,0,0,0-.11.29.39.39,0,0,0,.11.28L68,60.1a.42.42,0,0,0,.29.12.4.4,0,0,0,.29-.12l8.85-8.85a.4.4,0,0,0,.12-.29.38.38,0,0,0-.12-.28Z"/></g></g></svg>