<svg width="375" height="198" viewBox="0 0 375 198" fill="none" xmlns="http://www.w3.org/2000/svg">
<g clip-path="url(#clip0_235_3270)">
<path d="M60.9818 44.3553L-30.5703 87.8924L-16.2142 44.3553L39.4221 7.19817L60.9818 44.3553Z" stroke="#4181DD" stroke-miterlimit="10"/>
<path d="M81.7752 77.4292L60.9818 44.3553L39.4221 7.19817L81.7752 26.3892V77.4292ZM124.741 39.1492L81.7752 77.4292V26.3892L158.409 13.4761L124.741 39.1492Z" stroke="#4181DD" stroke-miterlimit="10"/>
<path d="M198.31 64.5671L124.741 39.1492L158.409 13.4761L183.954 26.3892L198.31 64.5671ZM357.3 51.0926L286.133 77.4292V26.3892L322.048 0.869202L357.3 51.0926Z" stroke="#4181DD" stroke-miterlimit="10"/>
<path d="M378.144 87.8924L357.3 51.0926L322.048 0.869202L392.501 44.3553L378.144 87.8924ZM260.588 47.5198L198.31 64.5671L183.954 26.3892L235.043 7.19816L260.588 47.5198Z" stroke="#4181DD" stroke-miterlimit="10"/>
<path d="M286.133 77.4292L260.588 47.5198L235.043 7.19817L286.133 26.3892V77.4292ZM15.2057 102.949L-7.22248 128.469L-30.5703 87.8924L60.9818 44.3553L15.2057 102.949Z" stroke="#4181DD" stroke-miterlimit="10"/>
<path d="M120.092 145.261L15.2057 102.949L60.9817 44.3553L81.7751 77.4292L120.092 145.261Z" stroke="#4181DD" stroke-miterlimit="10"/>
<path d="M132.864 128.469L120.092 145.261L81.7751 77.4292L124.741 39.1492L132.864 128.469Z" stroke="#4181DD" stroke-miterlimit="10"/>
<path d="M206.944 81.6145L132.864 128.469L124.741 39.1492L198.31 64.5671L206.944 81.6145ZM325.778 112.085L299.773 107.594L286.133 77.4292L357.3 51.0926L325.778 112.085Z" stroke="#4181DD" stroke-miterlimit="10"/>
<path d="M401.492 128.469L325.778 112.085L357.3 51.0926L378.144 87.8924L401.492 128.469ZM235.043 128.469L206.944 81.6145L198.31 64.5671L260.588 47.5198L235.043 128.469ZM299.773 107.594L235.043 128.469L260.588 47.5198L286.132 77.4292L299.773 107.594ZM39.422 160.318L-16.2142 197.475L-7.22251 128.469L15.2057 102.949L39.422 160.318Z" stroke="#4181DD" stroke-miterlimit="10"/>
<path d="M81.7751 179.509L39.422 160.318L15.2057 102.949L120.092 145.261L81.7751 179.509Z" stroke="#4181DD" stroke-miterlimit="10"/>
<path d="M158.409 166.596L81.7751 179.509L120.092 145.261L132.864 128.469L158.409 166.596Z" stroke="#4181DD" stroke-miterlimit="10"/>
<path d="M183.954 179.509L158.409 166.596L132.865 128.469L206.944 81.6145L183.954 179.509ZM322.048 153.989L286.132 179.509L299.773 107.594L325.778 112.085L322.048 153.989Z" stroke="#4181DD" stroke-miterlimit="10"/>
<path d="M392.501 197.475L322.048 153.989L325.778 112.085L401.492 128.469L392.501 197.475ZM235.043 160.318L183.954 179.509L206.944 81.6145L235.043 128.469V160.318ZM286.133 179.509L235.043 160.318V128.469L299.773 107.594L286.133 179.509Z" stroke="#4181DD" stroke-miterlimit="10"/>
</g>
<defs>
<clipPath id="clip0_235_3270">
<rect width="433" height="198" fill="white" transform="translate(-31)"/>
</clipPath>
</defs>
</svg>
